<svg width="347" height="63" viewBox="0 0 347 63" fill="none" xmlns="http://www.w3.org/2000/svg">
<path d="M11.056 22.192C12.016 23.056 13.072 23.92 14.224 24.784C15.408 25.616 16.576 26.464 17.728 27.328C18.912 28.192 19.984 29.072 20.944 29.968C23.12 31.984 24.208 34.208 24.208 36.64C24.208 39.648 23.056 42.16 20.752 44.176C18.48 46.192 15.472 47.2 11.728 47.2C7.984 47.2 5.104 46.352 3.088 44.656C1.072 42.96 0.0640001 40.944 0.0640001 38.608C0.0640001 36.88 0.576 35.488 1.6 34.432C2.624 33.344 3.952 32.8 5.584 32.8C6.032 32.8 6.464 32.864 6.88 32.992C5.888 34.496 5.392 36.112 5.392 37.84C5.392 39.536 5.984 40.992 7.168 42.208C8.352 43.424 10.128 44.032 12.496 44.032C14.192 44.032 15.696 43.52 17.008 42.496C18.352 41.44 19.024 39.984 19.024 38.128C19.024 36.912 18.624 35.728 17.824 34.576C17.024 33.392 16.032 32.352 14.848 31.456C13.664 30.56 12.368 29.568 10.96 28.48C9.552 27.36 8.256 26.288 7.072 25.264C5.888 24.24 4.896 22.992 4.096 21.52C3.296 20.048 2.896 18.512 2.896 16.912C2.896 13.872 3.92 11.472 5.968 9.712C8.048 7.92 11.04 7.024 14.944 7.024C18.112 7.024 20.592 7.872 22.384 9.568C24.208 11.232 25.12 12.976 25.12 14.8C25.12 16.592 24.624 18.064 23.632 19.216C22.672 20.368 21.344 20.944 19.648 20.944C19.072 20.944 18.512 20.88 17.968 20.752C19.536 19.088 20.32 17.328 20.32 15.472C20.32 13.616 19.744 12.224 18.592 11.296C17.44 10.336 15.968 9.856 14.176 9.856C12.416 9.856 10.912 10.368 9.664 11.392C8.416 12.416 7.792 13.968 7.792 16.048C7.792 18.128 8.88 20.176 11.056 22.192ZM37.6915 31.168C38.7475 27.552 40.3635 24.512 42.5395 22.048C44.7475 19.552 46.8115 18.304 48.7315 18.304C50.6515 18.304 52.0115 18.896 52.8115 20.08C53.6115 21.232 54.0115 22.816 54.0115 24.832C54.0115 26.816 53.6915 29.616 53.0515 33.232C52.4435 36.848 52.1395 39.488 52.1395 41.152C52.1395 42.784 52.3475 43.984 52.7635 44.752C53.1795 45.488 53.8835 46.128 54.8755 46.672C54.4595 46.704 53.8675 46.72 53.0995 46.72C51.0515 46.72 49.5315 46.304 48.5395 45.472C47.5795 44.608 47.0995 43.152 47.0995 41.104C47.0995 39.92 47.4195 37.536 48.0595 33.952C48.6995 30.336 49.0195 27.68 49.0195 25.984C49.0195 23.872 48.2835 22.816 46.8115 22.816C45.9475 22.816 44.9875 23.28 43.9315 24.208C42.8755 25.104 41.8515 26.336 40.8595 27.904C39.8995 29.44 39.0835 31.408 38.4115 33.808C37.7715 36.176 37.4515 38.528 37.4515 40.864C37.4515 43.168 37.5475 44.88 37.7395 46C36.9715 46.064 36.5395 46.096 36.4435 46.096C34.9395 46.096 33.8195 45.776 33.0835 45.136C32.3795 44.496 32.0275 43.504 32.0275 42.16C32.0275 40.784 32.3155 38.16 32.8915 34.288C34.5875 22.384 35.4355 13.344 35.4355 7.168C35.4355 4.384 35.2435 2.512 34.8595 1.552C36.7155 2.224 38.0115 3.216 38.7475 4.528C39.5155 5.84 39.8995 7.648 39.8995 9.952C39.8995 11.552 39.5795 14.912 38.9395 20.032C38.3315 25.152 37.9155 28.864 37.6915 31.168ZM67.792 46.72C65.968 46.08 64.688 45.104 63.952 43.792C63.248 42.448 62.896 40.832 62.896 38.944C62.896 37.056 63.152 34.352 63.664 30.832C64.176 27.312 64.432 24.576 64.432 22.624C64.432 20.672 64.336 19.168 64.144 18.112C64.72 18.048 65.184 18.016 65.536 18.016C66.976 18.016 68.016 18.336 68.656 18.976C69.296 19.616 69.616 20.672 69.616 22.144C69.616 22.624 69.216 25.152 68.416 29.728C67.648 34.272 67.248 38.032 67.216 41.008C67.216 43.952 67.408 45.856 67.792 46.72ZM68.512 13.264C65.824 13.264 64.48 12.352 64.48 10.528C64.48 9.888 64.72 8.992 65.2 7.84C65.904 7.712 66.512 7.648 67.024 7.648C69.712 7.648 71.056 8.56 71.056 10.384C71.056 11.024 70.816 11.92 70.336 13.072C69.632 13.2 69.024 13.264 68.512 13.264ZM85.8059 9.328C85.8059 10.768 85.4859 13.76 84.8459 18.304C84.2379 22.848 83.8219 26.368 83.5979 28.864C84.5259 25.504 85.8539 22.912 87.5819 21.088C89.3419 19.232 91.2459 18.304 93.2939 18.304C95.3419 18.304 97.1019 19.28 98.5739 21.232C100.046 23.184 100.782 25.68 100.782 28.72C100.782 33.488 99.5979 37.504 97.2299 40.768C94.8939 44.032 92.0139 45.664 88.5899 45.664C87.6619 45.664 86.7179 45.52 85.7579 45.232C87.8059 44.72 89.5979 43.536 91.1339 41.68C92.7019 39.792 93.8379 37.76 94.5419 35.584C95.2459 33.376 95.5979 31.328 95.5979 29.44C95.5979 27.552 95.2619 25.984 94.5899 24.736C93.9179 23.456 92.8779 22.816 91.4699 22.816C90.0619 22.816 88.6859 23.648 87.3419 25.312C86.0299 26.976 84.9419 29.168 84.0779 31.888C83.2459 34.608 82.8299 37.264 82.8299 39.856C82.8299 42.416 83.1339 44.752 83.7419 46.864C82.0459 46.32 80.7019 45.168 79.7099 43.408C78.7499 41.648 78.2699 39.568 78.2699 37.168C78.2699 34.736 78.7979 30.08 79.8539 23.2C80.9419 16.32 81.4859 11.296 81.4859 8.128C81.4859 4.96 81.3419 2.272 81.0539 0.0639992C84.2219 1.216 85.8059 4.304 85.8059 9.328ZM125.292 18.208C128.044 18.208 129.42 19.632 129.42 22.48C129.42 22.992 129.116 25.248 128.508 29.248C127.9 33.216 127.596 36.624 127.596 39.472C127.596 42.32 127.9 44.832 128.508 47.008C126.556 46.24 125.196 45.152 124.428 43.744C123.692 42.336 123.324 40.592 123.324 38.512C123.324 37.712 123.5 35.904 123.852 33.088C122.892 36.736 121.404 39.808 119.388 42.304C117.372 44.768 115.5 46 113.772 46C110.124 46 108.3 43.344 108.3 38.032C108.3 36.272 108.556 33.824 109.068 30.688C109.612 27.52 109.884 25.12 109.884 23.488C109.884 21.856 109.66 20.208 109.212 18.544C111.26 18.544 112.796 18.896 113.82 19.6C114.844 20.304 115.356 21.664 115.356 23.68C115.356 24.768 115.02 27.008 114.348 30.4C113.676 33.792 113.34 36.304 113.34 37.936C113.34 40.304 114.076 41.488 115.548 41.488C116.764 41.488 118.028 40.544 119.34 38.656C120.684 36.736 121.804 34.256 122.7 31.216C123.596 28.176 124.044 25.168 124.044 22.192C124.044 20.848 123.948 19.552 123.756 18.304C124.46 18.24 124.972 18.208 125.292 18.208ZM157.089 21.616C157.089 22.736 156.609 24.288 155.649 26.272C154.689 28.256 153.521 30.432 152.145 32.8C150.769 35.168 149.393 37.696 148.017 40.384C146.641 43.04 145.473 45.952 144.513 49.12C143.553 52.32 143.073 55.376 143.073 58.288C143.073 59.728 143.185 61.104 143.409 62.416C141.361 61.936 139.969 61.216 139.233 60.256C138.529 59.328 138.177 58.224 138.177 56.944C138.177 55.12 139.297 51.648 141.537 46.528C141.057 44.544 140.465 41.44 139.761 37.216C139.057 32.96 138.337 29.264 137.601 26.128C136.897 22.992 136.081 20.656 135.153 19.12C136.369 18.288 137.409 17.872 138.273 17.872C139.937 17.872 141.073 18.736 141.681 20.464C142.289 22.16 142.817 25.424 143.265 30.256C143.745 35.088 144.225 38.64 144.705 40.912C150.977 29.104 154.113 21.216 154.113 17.248C156.097 18.592 157.089 20.048 157.089 21.616ZM168.639 27.232C167.711 28.832 166.991 30.48 166.479 32.176C165.999 33.84 165.759 35.44 165.759 36.976C165.759 38.512 166.095 39.824 166.767 40.912C167.471 41.968 168.463 42.496 169.743 42.496C171.535 42.496 173.215 41.52 174.783 39.568C176.351 37.584 177.551 35.2 178.383 32.416C179.247 29.6 179.679 27.008 179.679 24.64C179.679 22.24 179.583 20.272 179.391 18.736C180.159 18.672 180.639 18.64 180.831 18.64C183.551 18.64 184.911 20.032 184.911 22.816C184.911 23.424 184.527 25.904 183.759 30.256C182.991 34.576 182.607 38.048 182.607 40.672C182.607 43.264 183.103 45.568 184.095 47.584C182.079 47.168 180.607 46.288 179.679 44.944C178.783 43.568 178.335 41.6 178.335 39.04C178.335 38.592 178.399 37.728 178.527 36.448C177.663 39.488 176.143 41.936 173.967 43.792C171.791 45.648 169.647 46.576 167.535 46.576C165.455 46.576 163.775 45.792 162.495 44.224C161.215 42.624 160.575 40.432 160.575 37.648C160.575 34.832 161.087 32.096 162.111 29.44C163.167 26.752 164.735 24.432 166.815 22.48C168.927 20.528 171.279 19.552 173.871 19.552C174.991 19.552 176.223 19.776 177.567 20.224C175.679 20.704 173.951 21.584 172.383 22.864C170.815 24.144 169.567 25.6 168.639 27.232ZM227.384 30.928L227.336 29.728L227.24 28.528C227.816 28.464 228.408 28.432 229.016 28.432C230.488 28.432 231.512 28.752 232.088 29.392C232.664 30 232.952 31.056 232.952 32.56C232.952 42.32 231.304 49.936 228.008 55.408C226.856 57.296 225.352 58.832 223.496 60.016C221.672 61.2 219.592 61.792 217.256 61.792C214.088 61.792 211.704 60.928 210.104 59.2C208.504 57.504 207.704 55.6 207.704 53.488C207.704 51.408 208.168 49.76 209.096 48.544C210.056 47.36 211.24 46.768 212.648 46.768C213.544 46.768 214.376 47.04 215.144 47.584C213.768 49.472 213.08 51.344 213.08 53.2C213.08 57.072 214.632 59.008 217.736 59.008C220.84 59.008 223.192 57.184 224.792 53.536C226.392 49.888 227.336 44.8 227.624 38.272C226.472 40.352 225.032 41.936 223.304 43.024C221.576 44.08 219.768 44.608 217.88 44.608C214.872 44.608 212.296 43.36 210.152 40.864C208.04 38.368 206.984 34.896 206.984 30.448C206.984 24.304 208.472 18.992 211.448 14.512C212.92 12.304 214.808 10.56 217.112 9.28C219.448 7.968 222.104 7.312 225.08 7.312C228.056 7.312 230.312 8.128 231.848 9.76C233.416 11.36 234.2 13.312 234.2 15.616C234.2 17.888 233.528 19.68 232.184 20.992C230.872 22.272 229.304 22.912 227.48 22.912C224.824 22.912 222.824 21.984 221.48 20.128C222.344 20.352 223.16 20.464 223.928 20.464C225.752 20.464 227.176 19.92 228.2 18.832C229.256 17.744 229.784 16.496 229.784 15.088C229.784 13.648 229.304 12.464 228.344 11.536C227.384 10.576 226.024 10.096 224.264 10.096C221.928 10.096 219.8 11.168 217.88 13.312C215.992 15.456 214.552 18.048 213.56 21.088C212.6 24.128 212.12 27.312 212.12 30.64C212.12 33.936 212.824 36.528 214.232 38.416C215.672 40.304 217.432 41.248 219.512 41.248C221.592 41.248 223.416 40.32 224.984 38.464C226.584 36.576 227.384 34.064 227.384 30.928ZM247.233 30.4C248.385 26.24 249.761 23.184 251.361 21.232C252.993 19.248 254.497 18.256 255.873 18.256C257.281 18.256 258.337 18.784 259.041 19.84C259.745 20.864 260.097 22.176 260.097 23.776C260.097 25.376 259.681 26.768 258.849 27.952C258.017 29.104 256.801 29.68 255.201 29.68C254.689 29.68 254.289 29.648 254.001 29.584C255.089 28.016 255.633 26.416 255.633 24.784C255.633 23.632 255.169 23.056 254.241 23.056C253.505 23.056 252.721 23.488 251.889 24.352C251.057 25.216 250.257 26.416 249.489 27.952C248.721 29.488 248.081 31.488 247.569 33.952C247.057 36.416 246.801 39.072 246.801 41.92C246.801 42.24 246.881 43.6 247.041 46C246.209 46.064 245.729 46.096 245.601 46.096C242.785 46.096 241.377 44.72 241.377 41.968C241.377 41.328 241.713 38.864 242.385 34.576C243.057 30.288 243.393 26.88 243.393 24.352C243.393 21.792 243.121 19.44 242.577 17.296C244.465 18.032 245.777 19.088 246.513 20.464C247.281 21.808 247.665 23.392 247.665 25.216C247.665 27.008 247.521 28.736 247.233 30.4ZM281.308 30.256C281.308 27.12 280.908 24.88 280.108 23.536C279.34 22.16 278.22 21.472 276.748 21.472C275.308 21.472 273.852 22.192 272.38 23.632C270.908 25.04 269.74 26.8 268.876 28.912C268.044 30.992 267.628 33.168 267.628 35.44C267.628 37.68 268.06 39.632 268.924 41.296C269.788 42.928 271.1 43.744 272.86 43.744C275.356 43.744 277.388 42.272 278.956 39.328C280.524 36.384 281.308 33.36 281.308 30.256ZM267.388 28.384C268.604 24.928 270.236 22.416 272.284 20.848C274.364 19.248 276.46 18.448 278.572 18.448C280.716 18.448 282.492 19.392 283.9 21.28C285.308 23.136 286.012 25.664 286.012 28.864C286.012 32.384 285.34 35.648 283.996 38.656C282.492 41.984 280.316 44.304 277.468 45.616C275.932 46.352 274.236 46.72 272.38 46.72C269.788 46.72 267.516 45.648 265.564 43.504C263.612 41.328 262.636 38.24 262.636 34.24C262.636 30.208 263.5 26.72 265.228 23.776C266.956 20.832 269.308 18.784 272.284 17.632C272.924 17.632 273.244 17.952 273.244 18.592C270.076 20.672 268.124 23.936 267.388 28.384ZM310.261 18.208C313.013 18.208 314.389 19.632 314.389 22.48C314.389 22.992 314.085 25.248 313.477 29.248C312.869 33.216 312.565 36.624 312.565 39.472C312.565 42.32 312.869 44.832 313.477 47.008C311.525 46.24 310.165 45.152 309.397 43.744C308.661 42.336 308.293 40.592 308.293 38.512C308.293 37.712 308.469 35.904 308.821 33.088C307.861 36.736 306.373 39.808 304.357 42.304C302.341 44.768 300.469 46 298.741 46C295.093 46 293.269 43.344 293.269 38.032C293.269 36.272 293.525 33.824 294.037 30.688C294.581 27.52 294.853 25.12 294.853 23.488C294.853 21.856 294.629 20.208 294.181 18.544C296.229 18.544 297.765 18.896 298.789 19.6C299.813 20.304 300.325 21.664 300.325 23.68C300.325 24.768 299.989 27.008 299.317 30.4C298.645 33.792 298.309 36.304 298.309 37.936C298.309 40.304 299.045 41.488 300.517 41.488C301.733 41.488 302.997 40.544 304.309 38.656C305.653 36.736 306.773 34.256 307.669 31.216C308.565 28.176 309.013 25.168 309.013 22.192C309.013 20.848 308.917 19.552 308.725 18.304C309.429 18.24 309.941 18.208 310.261 18.208ZM328.57 28.672C329.882 25.696 331.53 23.424 333.514 21.856C335.53 20.256 337.514 19.456 339.466 19.456C341.45 19.456 343.082 20.256 344.362 21.856C345.642 23.424 346.282 25.712 346.282 28.72C346.282 33.488 345.018 37.568 342.49 40.96C339.994 44.32 336.986 46 333.466 46C332.218 46 330.938 45.744 329.626 45.232C332.026 44.752 334.122 43.536 335.914 41.584C337.738 39.6 339.05 37.488 339.85 35.248C340.682 32.976 341.098 30.944 341.098 29.152C341.098 27.328 340.778 25.936 340.138 24.976C339.498 24.016 338.586 23.536 337.402 23.536C335.194 23.536 333.226 24.768 331.498 27.232C329.77 29.664 328.442 32.976 327.514 37.168C326.586 41.36 326.122 45.68 326.122 50.128C326.122 54.608 326.442 58.496 327.082 61.792C325.13 61.696 323.594 61.264 322.474 60.496C321.354 59.728 320.794 58.304 320.794 56.224C320.794 55.456 321.274 51.408 322.234 44.08C323.226 36.72 323.722 31.056 323.722 27.088C323.722 23.12 323.482 19.776 323.002 17.056C325.114 17.664 326.57 18.912 327.37 20.8C328.17 22.656 328.57 25.28 328.57 28.672Z" fill="black"/>
</svg>
